<svg xmlns="http://www.w3.org/2000/svg" xmlns:xlink="http://www.w3.org/1999/xlink" version="1.1" width="968" height="992"><g id="Context Diagram 2"><g id="Creates, views, updates, deletes tasks and syncs with MyCourses"><polyline points="504,192 504,424" fill="none" stroke-width="1" stroke="#adb3b3" opacity="1"></polyline></g><g id="Creates, views, updates, deletes tasks and syncs with MyCourses"><rect width="119.128" height="70.19999999999999" x="444.43600000000004" y="272.9" rx="4" ry="4" fill-opacity="0.8" fill="#323435" stroke-opacity="1" stroke-width="1" stroke="#434647" opacity="0.8"></rect><g opacity="1" fill="#e5e7e8"><text font-family="IBM Plex Sans Medium, Arial, sans-serif" font-size="14" text-anchor="middle" x="504" y="289.25"><tspan dy="0" x="504">Creates, views,</tspan></text><text font-family="IBM Plex Sans Medium, Arial, sans-serif" font-size="14" text-anchor="middle" x="504" y="305.25"><tspan dy="0" x="504">updates, deletes</tspan></text><text font-family="IBM Plex Sans Medium, Arial, sans-serif" font-size="14" text-anchor="middle" x="504" y="321.25"><tspan dy="0" x="504">tasks and syncs</tspan></text><text font-family="IBM Plex Sans Medium, Arial, sans-serif" font-size="14" text-anchor="middle" x="504" y="337.25"><tspan dy="0" x="504">with MyCourses</tspan></text></g></g><g id="Views own tasks and monitors assignment deadlines"><polyline points="160,408 160.37,445 161.45999999999998,456.40999999999997 163.25,466.33000000000004 165.74,474.85 168.91000000000003,482.04999999999995 172.74,488.02 177.23000000000002,492.86 182.33999999999997,496.65999999999997 188.07999999999998,499.49 194.42000000000002,501.47 201.33999999999997,502.65999999999997 216.91000000000003,503.07000000000005 234.66000000000003,501.46000000000004 287.81,493.23 312.26,490.15 338.37,488.27 376,488" fill="none" stroke-width="1" stroke="#adb3b3" opacity="1"></polyline></g><g id="Views own tasks and monitors assignment deadlines"><rect width="118.442" height="70.19999999999999" x="172.16412674527396" y="466.65704484169635" rx="4" ry="4" fill-opacity="0.8" fill="#323435" stroke-opacity="1" stroke-width="1" stroke="#434647" opacity="0.8"></rect><g opacity="1" fill="#e5e7e8"><text font-family="IBM Plex Sans Medium, Arial, sans-serif" font-size="14" text-anchor="middle" x="231.38512674527396" y="483.00704484169637"><tspan dy="0" x="231.38512674527396">Views own tasks</tspan></text><text font-family="IBM Plex Sans Medium, Arial, sans-serif" font-size="14" text-anchor="middle" x="231.38512674527396" y="499.00704484169637"><tspan dy="0" x="231.38512674527396">and monitors</tspan></text><text font-family="IBM Plex Sans Medium, Arial, sans-serif" font-size="14" text-anchor="middle" x="231.38512674527396" y="515.0070448416964"><tspan dy="0" x="231.38512674527396">assignment</tspan></text><text font-family="IBM Plex Sans Medium, Arial, sans-serif" font-size="14" text-anchor="middle" x="231.38512674527396" y="531.0070448416964"><tspan dy="0" x="231.38512674527396">deadlines</tspan></text></g></g><g id="Manages configuration, user accounts, and monitors sync health via admin interface"><polyline points="808,408 807.59,445.49 806.35,457.05999999999995 804.31,466.83000000000004 801.47,474.94000000000005 797.84,481.53 793.44,486.72 788.26,490.65999999999997 782.34,493.47 775.66,495.28999999999996 760.11,496.48 741.71,495.30999999999995 683.75,489.03999999999996 670.19,488.28 632,488" fill="none" stroke-width="1" stroke="#adb3b3" opacity="1"></polyline></g><g id="Manages configuration, user accounts, and monitors sync health via admin interface"><rect width="132.54" height="102.19999999999999" x="688.4021776472857" y="445.034225426485" rx="4" ry="4" fill-opacity="0.8" fill="#323435" stroke-opacity="1" stroke-width="1" stroke="#434647" opacity="0.8"></rect><g opacity="1" fill="#e5e7e8"><text font-family="IBM Plex Sans Medium, Arial, sans-serif" font-size="14" text-anchor="middle" x="754.6721776472857" y="461.38422542648505"><tspan dy="0" x="754.6721776472857">Manages</tspan></text><text font-family="IBM Plex Sans Medium, Arial, sans-serif" font-size="14" text-anchor="middle" x="754.6721776472857" y="477.38422542648505"><tspan dy="0" x="754.6721776472857">configuration, user</tspan></text><text font-family="IBM Plex Sans Medium, Arial, sans-serif" font-size="14" text-anchor="middle" x="754.6721776472857" y="493.38422542648505"><tspan dy="0" x="754.6721776472857">accounts, and</tspan></text><text font-family="IBM Plex Sans Medium, Arial, sans-serif" font-size="14" text-anchor="middle" x="754.6721776472857" y="509.38422542648505"><tspan dy="0" x="754.6721776472857">monitors sync</tspan></text><text font-family="IBM Plex Sans Medium, Arial, sans-serif" font-size="14" text-anchor="middle" x="754.6721776472857" y="525.384225426485"><tspan dy="0" x="754.6721776472857">health via admin</tspan></text><text font-family="IBM Plex Sans Medium, Arial, sans-serif" font-size="14" text-anchor="middle" x="754.6721776472857" y="541.3842254264852"><tspan dy="0" x="754.6721776472857">interface</tspan></text></g></g><g id="Retrieves courses, assignments, and submission status via web services"><polyline points="504,552 504,576 503.21000000000004,597.28 499.53,630.77 493.77,665.42 477.99,746.17 471.39,789.15 469.45000000000005,818.39 470.15999999999997,836 471.23,844.15 474.99,858.98 477.75,865.5999999999999 481.15,871.6600000000001 485.24,877.1199999999999 490.03999999999996,881.94 495.59000000000003,886.1099999999999 501.94000000000005,889.5899999999999 509.11,892.3499999999999 517.16,894.3599999999999 526.11,895.5799999999999 536,896 560,896" fill="none" stroke-width="1" stroke="#adb3b3" opacity="1"></polyline></g><g id="Retrieves courses, assignments, and submission status via web services"><rect width="130.16" height="70.19999999999999" x="411.51494462948756" y="720.1547696703979" rx="4" ry="4" fill-opacity="0.8" fill="#323435" stroke-opacity="1" stroke-width="1" stroke="#434647" opacity="0.8"></rect><g opacity="1" fill="#e5e7e8"><text font-family="IBM Plex Sans Medium, Arial, sans-serif" font-size="14" text-anchor="middle" x="476.59494462948754" y="736.5047696703978"><tspan dy="0" x="476.59494462948754">Retrieves courses,</tspan></text><text font-family="IBM Plex Sans Medium, Arial, sans-serif" font-size="14" text-anchor="middle" x="476.5949446294876" y="752.5047696703978"><tspan dy="0" x="476.5949446294876">assignments, and</tspan></text><text font-family="IBM Plex Sans Medium, Arial, sans-serif" font-size="14" text-anchor="middle" x="476.5949446294876" y="768.5047696703978"><tspan dy="0" x="476.5949446294876">submission status</tspan></text><text font-family="IBM Plex Sans Medium, Arial, sans-serif" font-size="14" text-anchor="middle" x="476.59494462948754" y="784.5047696703978"><tspan dy="0" x="476.59494462948754">via web services</tspan></text></g></g><a href="https://app.icepanel.io/landscapes/7lFgX7j8AtWqVITCu3lO/versions/latest/model/objects?object=kWaEjdOtWf&amp;focus=kWaEjdOtWf" id="Student" target="_blank"><rect width="56" height="56" rx="8" ry="8" fill-opacity="0.8" fill="#1f2121" stroke-opacity="1" stroke-width="1" stroke="#434647" opacity="1" x="476" y="32"></rect><rect width="256" height="96" rx="8" ry="8" fill-opacity="0.8" fill="#1f2121" stroke-opacity="1" stroke-width="1" stroke="#434647" opacity="1" x="376" y="96"></rect><path d="M504 61.714285714285715C507.7875 61.714285714285715 510.8571428571429 58.644642857142856 510.8571428571429 54.85714285714286C510.8571428571429 51.06964285714285 507.7875 48 504 48C500.2125 48 497.1428571428571 51.06964285714285 497.1428571428571 54.85714285714286C497.1428571428571 58.644642857142856 500.2125 61.714285714285715 504 61.714285714285715ZM508.8 63.42857142857143L507.90535714285716 63.42857142857143C506.71607142857147 63.974999999999994 505.3928571428571 64.28571428571428 504 64.28571428571428C502.6071428571429 64.28571428571428 501.2892857142857 63.974999999999994 500.09464285714284 63.42857142857143L499.2 63.42857142857143C495.225 63.42857142857143 492 66.65357142857142 492 70.62857142857143L492 72.85714285714286C492 74.27678571428571 493.1517857142857 75.42857142857143 494.57142857142856 75.42857142857143L513.4285714285714 75.42857142857143C514.8482142857142 75.42857142857143 516 74.27678571428571 516 72.85714285714286L516 70.62857142857143C516 66.65357142857142 512.775 63.42857142857143 508.8 63.42857142857143Z " fill="#ffffff" opacity="1"></path><text font-family="IBM Plex Sans Medium, Arial, sans-serif" font-size="24" font-weight="500" text-anchor="middle" fill="#ffffff" opacity="1" x="504" y="134.33333333333334"><tspan dy="0" x="504">Student</tspan></text><g opacity="1"><text font-family="IBM Plex Sans, Arial, sans-serif" font-size="10" text-anchor="middle" fill="#adb3b3" x="504" y="154.08333333333334"><tspan dy="0" x="504">[Manages personal tasks and track course work via</tspan></text><text font-family="IBM Plex Sans, Arial, sans-serif" font-size="10" text-anchor="middle" fill="#adb3b3" x="504" y="166.08333333333334"><tspan dy="0" x="504">web or mobile app]</tspan></text></g><g id="Actor" opacity="1"><text font-family="Courier New, monospace" font-size="12" text-anchor="middle" fill="#adb3b3" x="504" y="180.6552734375"><tspan dy="0" x="504">Actor</tspan></text></g></a><a href="https://app.icepanel.io/landscapes/7lFgX7j8AtWqVITCu3lO/versions/latest/model/objects?object=kJoY7Ye3oW&amp;focus=kJoY7Ye3oW" id="ICT_TO_DO_LIST" target="_blank"><rect width="256" height="128" rx="8" ry="8" fill-opacity="0.8" fill="#1f2121" stroke-opacity="1" stroke-width="1" stroke="#434647" opacity="1" x="376" y="424"></rect><text font-family="IBM Plex Sans Medium, Arial, sans-serif" font-size="24" font-weight="500" text-anchor="middle" fill="#ffffff" opacity="1" x="504" y="493"><tspan dy="0" x="504">ICT_TO_DO_LIST</tspan></text><g id="System" opacity="1"><text font-family="Courier New, monospace" font-size="12" text-anchor="middle" fill="#adb3b3" x="504" y="540.6552734375"><tspan dy="0" x="504">System</tspan></text></g></a><a href="https://app.icepanel.io/landscapes/7lFgX7j8AtWqVITCu3lO/versions/latest/model/objects?object=z177J9cDCj&amp;focus=z177J9cDCj" id="Instructor" target="_blank"><rect width="56" height="56" rx="8" ry="8" fill-opacity="0.8" fill="#1f2121" stroke-opacity="1" stroke-width="1" stroke="#434647" opacity="1" x="132" y="248"></rect><rect width="256" height="96" rx="8" ry="8" fill-opacity="0.8" fill="#1f2121" stroke-opacity="1" stroke-width="1" stroke="#434647" opacity="1" x="32" y="312"></rect><path d="M160 277.7142857142857C163.7875 277.7142857142857 166.85714285714286 274.64464285714286 166.85714285714286 270.8571428571429C166.85714285714286 267.06964285714287 163.7875 264 160 264C156.2125 264 153.14285714285714 267.06964285714287 153.14285714285714 270.8571428571429C153.14285714285714 274.64464285714286 156.2125 277.7142857142857 160 277.7142857142857ZM164.8 279.42857142857144L163.90535714285716 279.42857142857144C162.71607142857144 279.975 161.39285714285714 280.2857142857143 160 280.2857142857143C158.60714285714286 280.2857142857143 157.2892857142857 279.975 156.09464285714284 279.42857142857144L155.2 279.42857142857144C151.225 279.42857142857144 148 282.6535714285714 148 286.62857142857143L148 288.85714285714283C148 290.2767857142857 149.15178571428572 291.42857142857144 150.57142857142856 291.42857142857144L169.42857142857142 291.42857142857144C170.84821428571428 291.42857142857144 172 290.2767857142857 172 288.85714285714283L172 286.62857142857143C172 282.6535714285714 168.775 279.42857142857144 164.8 279.42857142857144Z " fill="#ffffff" opacity="1"></path><text font-family="IBM Plex Sans Medium, Arial, sans-serif" font-size="24" font-weight="500" text-anchor="middle" fill="#ffffff" opacity="1" x="160" y="350.33333333333337"><tspan dy="0" x="160">Instructor</tspan></text><g opacity="1"><text font-family="IBM Plex Sans, Arial, sans-serif" font-size="14" text-anchor="middle" fill="#adb3b3" x="160" y="377.58333333333337"><tspan dy="0" x="160">Views teaching-related tasks</tspan></text></g><g id="Actor" opacity="1"><text font-family="Courier New, monospace" font-size="12" text-anchor="middle" fill="#adb3b3" x="160" y="396.6552734375"><tspan dy="0" x="160">Actor</tspan></text></g></a><a href="https://app.icepanel.io/landscapes/7lFgX7j8AtWqVITCu3lO/versions/latest/model/objects?object=sY2thcs8mK&amp;focus=sY2thcs8mK" id="System Administrator" target="_blank"><rect width="56" height="56" rx="8" ry="8" fill-opacity="0.8" fill="#1f2121" stroke-opacity="1" stroke-width="1" stroke="#434647" opacity="1" x="780" y="248"></rect><rect width="256" height="96" rx="8" ry="8" fill-opacity="0.8" fill="#1f2121" stroke-opacity="1" stroke-width="1" stroke="#434647" opacity="1" x="680" y="312"></rect><path d="M808 277.7142857142857C811.7875 277.7142857142857 814.8571428571429 274.64464285714286 814.8571428571429 270.8571428571429C814.8571428571429 267.06964285714287 811.7875 264 808 264C804.2125 264 801.1428571428571 267.06964285714287 801.1428571428571 270.8571428571429C801.1428571428571 274.64464285714286 804.2125 277.7142857142857 808 277.7142857142857ZM812.8 279.42857142857144L811.9053571428572 279.42857142857144C810.7160714285715 279.975 809.3928571428571 280.2857142857143 808 280.2857142857143C806.6071428571429 280.2857142857143 805.2892857142857 279.975 804.0946428571428 279.42857142857144L803.2 279.42857142857144C799.225 279.42857142857144 796 282.6535714285714 796 286.62857142857143L796 288.85714285714283C796 290.2767857142857 797.1517857142857 291.42857142857144 798.5714285714286 291.42857142857144L817.4285714285714 291.42857142857144C818.8482142857142 291.42857142857144 820 290.2767857142857 820 288.85714285714283L820 286.62857142857143C820 282.6535714285714 816.775 279.42857142857144 812.8 279.42857142857144Z " fill="#ffffff" opacity="1"></path><text font-family="IBM Plex Sans Medium, Arial, sans-serif" font-size="24" font-weight="500" text-anchor="middle" fill="#ffffff" opacity="1" x="807.9999999999999" y="350.33333333333337"><tspan dy="0" x="807.9999999999999">System Administrator</tspan></text><g opacity="1"><text font-family="IBM Plex Sans, Arial, sans-serif" font-size="12" text-anchor="middle" fill="#adb3b3" x="807.9999999999999" y="376.83333333333326"><tspan dy="0" x="807.9999999999999">Manages config and monitors sync health</tspan></text></g><g id="Actor" opacity="1"><text font-family="Courier New, monospace" font-size="12" text-anchor="middle" fill="#adb3b3" x="808" y="396.6552734375"><tspan dy="0" x="808">Actor</tspan></text></g></a><a href="https://app.icepanel.io/landscapes/7lFgX7j8AtWqVITCu3lO/versions/latest/model/objects?object=0EvNwAZ57h&amp;focus=0EvNwAZ57h" id="MyCourse" target="_blank"><rect width="256" height="128" rx="8" ry="8" fill-opacity="0.8" fill="#1f2121" stroke-opacity="1" stroke-width="1" stroke="#434647" opacity="1" x="560" y="832"></rect><text font-family="IBM Plex Sans Medium, Arial, sans-serif" font-size="24" font-weight="500" text-anchor="middle" fill="#ffffff" opacity="1" x="688" y="883.0000000000001"><tspan dy="0" x="688">MyCourse</tspan></text><g opacity="1"><text font-family="IBM Plex Sans, Arial, sans-serif" font-size="14" text-anchor="middle" fill="#adb3b3" x="688.0000000000001" y="917.2500000000001"><tspan dy="0" x="688.0000000000001">External System</tspan></text></g><g id="System" opacity="1"><text font-family="Courier New, monospace" font-size="12" text-anchor="middle" fill="#adb3b3" x="688" y="948.6552734375"><tspan dy="0" x="688">System</tspan></text></g></a><g id="Creates, views, updates, deletes tasks and syncs with MyCourses"><polygon points="440,344 432,360 448,360 440,344" fill="#adb3b3" opacity="1" transform="matrix(-1,1.2246467991473532e-16,-1.2246467991473532e-16,-1,944,768)"></polygon><circle r="4" fill="#adb3b3" opacity="1" cx="504" cy="192"></circle></g><g id="Views own tasks and monitors assignment deadlines"><polygon points="368.22898036388693,416.287821348767 360.22898036388693,432.287821348767 376.22898036388693,432.287821348767 368.22898036388693,416.287821348767" fill="#adb3b3" opacity="1" transform="matrix(0.0071749415397126355,0.9999742597756712,-0.9999742597756712,0.0071749415397126355,789.6350845995213,116.79365715080024)"></polygon><circle r="4" fill="#adb3b3" opacity="1" cx="160" cy="408"></circle></g><g id="Manages configuration, user accounts, and monitors sync health via admin interface"><polygon points="576.235255116954,480.2924025665078 568.235255116954,496.2924025665078 584.235255116954,496.2924025665078 576.235255116954,480.2924025665078" fill="#adb3b3" opacity="1" transform="matrix(0.007331565190890571,-0.9999731237147585,0.9999731237147585,0.007331565190890571,147.49579957092334,1060.6984729937658)"></polygon><circle r="4" fill="#adb3b3" opacity="1" cx="808" cy="408"></circle></g><g id="Retrieves courses, assignments, and submission status via web services"><polygon points="552,824 544,840 560,840 552,824" fill="#adb3b3" opacity="1" transform="matrix(6.123233995736766e-17,1,-1,6.123233995736766e-17,1384,344)"></polygon><circle r="4" fill="#adb3b3" opacity="1" cx="504" cy="552"></circle></g></g></svg>