<svg xmlns="http://www.w3.org/2000/svg" xmlns:xlink="http://www.w3.org/1999/xlink" version="1.1" width="1904" height="888"><g id="ICT_TO_DO_LIST App Diagram"><g id="ICT_TO_DO_LIST"><rect width="1320" height="472" rx="8" ry="8" fill-opacity="0.1" fill="#ffffff" stroke-opacity="1" stroke-width="2" stroke="#4c5152" opacity="1" x="552" y="256"></rect><text font-family="IBM Plex Sans Medium, Arial, sans-serif" font-size="15" font-weight="500" fill="#ffffff" opacity="1" x="568" y="287.375"><tspan dy="0" x="568">ICT_TO_DO_LIST</tspan></text><g id="System" opacity="1"><text font-family="Courier New, monospace" font-size="12" text-anchor="middle" fill="#adb3b3" x="1212" y="716.6552734375"><tspan dy="0" x="1212">System</tspan></text></g></g><g id="Uses[HTTPS/JSON]"><polyline points="288,148 322.12,148.49 331.74,149.93 340.9,152.25 349.61,155.42000000000002 357.90999999999997,159.37 365.83000000000004,164.04000000000002 380.62,175.37 394.23,188.96 412.89,212.66 430.14,239.03 463.5,293.97 481.14,319.61 493.77,335.04 500.44,342.09 514.61,354.61 530.0899999999999,364.63 538.39,368.58 547.1,371.75 556.26,374.07 565.88,375.51 576,376 600,376" fill="none" stroke-width="1" stroke="#adb3b3" opacity="1"></polyline></g><g id="Uses[HTTPS/JSON]"><rect width="137.174" height="22.2" x="375.47968839757317" y="250.86561932142297" rx="4" ry="4" fill-opacity="0.8" fill="#323435" stroke-opacity="1" stroke-width="1" stroke="#434647" opacity="0.8"></rect><g opacity="1" fill="#e5e7e8"><text font-family="IBM Plex Sans Medium, Arial, sans-serif" font-size="14" text-anchor="middle" x="444.06668839757316" y="267.215619321423"><tspan dy="0" x="444.06668839757316">Uses[HTTPS/JSON]</tspan></text></g></g><g id="Uses[HTTPS/JSON]"><polyline points="288,364 338.57,364.19 382.19,365.51 417.03,367.72 479.11,372.89 515.71,374.92 549.4300000000001,375.81 600,376" fill="none" stroke-width="1" stroke="#adb3b3" opacity="1"></polyline></g><g id="Uses[HTTPS/JSON]"><rect width="137.174" height="22.2" x="375.41608148127904" y="358.86630849320574" rx="4" ry="4" fill-opacity="0.8" fill="#323435" stroke-opacity="1" stroke-width="1" stroke="#434647" opacity="0.8"></rect><g opacity="1" fill="#e5e7e8"><text font-family="IBM Plex Sans Medium, Arial, sans-serif" font-size="14" text-anchor="middle" x="444.003081481279" y="375.21630849320576"><tspan dy="0" x="444.003081481279">Uses[HTTPS/JSON]</tspan></text></g></g><g id="Uses (admin interface)[HTTPS/JSON]"><polyline points="288,572 322.68,571.53 332.81,570.15 342.42,567.9300000000001 351.53999999999996,564.9100000000001 360.21000000000004,561.14 368.46000000000004,556.69 383.83000000000004,545.96 397.91999999999996,533.14 417.26,510.97 429.34000000000003,494.86 464.64,444.99 483.42,421.91 496.98,408.21 504.17,402.04 519.54,391.31 527.79,386.86 536.46,383.09 545.5799999999999,380.07 555.19,377.85 565.3199999999999,376.47 576,376 600,376" fill="none" stroke-width="1" stroke="#adb3b3" opacity="1"></polyline></g><g id="Uses (admin interface)[HTTPS/JSON]"><rect width="168.1" height="38.2" x="360.024464099315" y="454.9439171492113" rx="4" ry="4" fill-opacity="0.8" fill="#323435" stroke-opacity="1" stroke-width="1" stroke="#434647" opacity="0.8"></rect><g opacity="1" fill="#e5e7e8"><text font-family="IBM Plex Sans Medium, Arial, sans-serif" font-size="14" text-anchor="middle" x="444.07446409931504" y="471.2939171492113"><tspan dy="0" x="444.07446409931504">Uses (admin</tspan></text><text font-family="IBM Plex Sans Medium, Arial, sans-serif" font-size="14" text-anchor="middle" x="444.07446409931504" y="487.2939171492113"><tspan dy="0" x="444.07446409931504">interface)[HTTPS/JSON]</tspan></text></g></g><g id="Calls REST API to manage tasks and request sync[HTTPS/JSON]"><polyline points="728,312 728.23,281.52 728.93,275.15 731.68,262.78 733.72,256.77 739.06,245.1 750.15,228.49 764.72,212.93 776.25,203.15 789.16,193.84 810.95,180.76 827,172.63 844.19,164.97 871.96,154.36 912.33,141.87 956.03,131.26 1002.52,122.54 1051.25,115.71000000000001 1101.6799999999998,110.75999999999999 1153.26,107.69 1205.46,106.50999999999999 1257.72,107.22 1309.51,109.81 1360.28,114.28999999999999 1409.49,120.66 1456.58,128.91 1501.03,139.04000000000002 1542.29,151.06 1579.81,164.97 1597,172.63 1613.05,180.76 1634.84,193.84 1647.75,203.15 1659.28,212.93 1673.85,228.49 1684.94,245.1 1690.28,256.77 1692.32,262.78 1695.07,275.15 1695.77,281.52 1696,312" fill="none" stroke-width="1" stroke="#adb3b3" opacity="1"></polyline></g><g id="Calls REST API to manage tasks and request sync[HTTPS/JSON]"><rect width="135.34" height="70.19999999999999" x="1144.3271812339192" y="71.49881359885347" rx="4" ry="4" fill-opacity="0.8" fill="#323435" stroke-opacity="1" stroke-width="1" stroke="#434647" opacity="0.8"></rect><g opacity="1" fill="#e5e7e8"><text font-family="IBM Plex Sans Medium, Arial, sans-serif" font-size="14" text-anchor="middle" x="1211.9971812339193" y="87.84881359885347"><tspan dy="0" x="1211.9971812339193">Calls REST API to</tspan></text><text font-family="IBM Plex Sans Medium, Arial, sans-serif" font-size="14" text-anchor="middle" x="1211.9971812339193" y="103.84881359885347"><tspan dy="0" x="1211.9971812339193">manage tasks and</tspan></text><text font-family="IBM Plex Sans Medium, Arial, sans-serif" font-size="14" text-anchor="middle" x="1211.9971812339193" y="119.84881359885347"><tspan dy="0" x="1211.9971812339193">request</tspan></text><text font-family="IBM Plex Sans Medium, Arial, sans-serif" font-size="14" text-anchor="middle" x="1211.9971812339193" y="135.84881359885347"><tspan dy="0" x="1211.9971812339193">sync[HTTPS/JSON]</tspan></text></g></g><g id="Calls REST API to manage tasks and request sync[HTTPS/JSON]"><polyline points="1208,376 1568,376" fill="none" stroke-width="1" stroke="#adb3b3" opacity="1"></polyline></g><g id="Calls REST API to manage tasks and request sync[HTTPS/JSON]"><rect width="135.34" height="70.19999999999999" x="1320.33" y="340.9" rx="4" ry="4" fill-opacity="0.8" fill="#323435" stroke-opacity="1" stroke-width="1" stroke="#434647" opacity="0.8"></rect><g opacity="1" fill="#e5e7e8"><text font-family="IBM Plex Sans Medium, Arial, sans-serif" font-size="14" text-anchor="middle" x="1388" y="357.25"><tspan dy="0" x="1388">Calls REST API to</tspan></text><text font-family="IBM Plex Sans Medium, Arial, sans-serif" font-size="14" text-anchor="middle" x="1388" y="373.25"><tspan dy="0" x="1388">manage tasks and</tspan></text><text font-family="IBM Plex Sans Medium, Arial, sans-serif" font-size="14" text-anchor="middle" x="1388" y="389.25"><tspan dy="0" x="1388">request</tspan></text><text font-family="IBM Plex Sans Medium, Arial, sans-serif" font-size="14" text-anchor="middle" x="1388" y="405.25"><tspan dy="0" x="1388">sync[HTTPS/JSON]</tspan></text></g></g><g id="Reads/writes tasks, users, sync history [SQL via ORM (SQLAlchemy)]"><polyline points="1696,440 1696,464 1694.52,478.51 1690.2,491.96 1687.04,498.29 1678.83,510.21 1668.26,521.1700000000001 1662.15,526.3 1648.4,535.88 1624.31,548.65 1596.64,559.61 1566.02,568.9 1544.3,574.23 1521.75,578.92 1486.78,584.85 1439.03,590.88 1391.41,595.07 1334.38,598.23 1282.92,599.66 1216,600" fill="none" stroke-width="1" stroke="#adb3b3" opacity="1"></polyline></g><g id="Reads/writes tasks, users, sync history [SQL via ORM (SQLAlchemy)]"><rect width="139.344" height="70.19999999999999" x="1423.35062973622" y="548.6914128013788" rx="4" ry="4" fill-opacity="0.8" fill="#323435" stroke-opacity="1" stroke-width="1" stroke="#434647" opacity="0.8"></rect><g opacity="1" fill="#e5e7e8"><text font-family="IBM Plex Sans Medium, Arial, sans-serif" font-size="14" text-anchor="middle" x="1493.02262973622" y="565.0414128013789"><tspan dy="0" x="1493.02262973622">Reads/writes tasks,</tspan></text><text font-family="IBM Plex Sans Medium, Arial, sans-serif" font-size="14" text-anchor="middle" x="1493.02262973622" y="581.0414128013789"><tspan dy="0" x="1493.02262973622">users, sync history</tspan></text><text font-family="IBM Plex Sans Medium, Arial, sans-serif" font-size="14" text-anchor="middle" x="1493.02262973622" y="597.0414128013789"><tspan dy="0" x="1493.02262973622">[SQL via ORM</tspan></text><text font-family="IBM Plex Sans Medium, Arial, sans-serif" font-size="14" text-anchor="middle" x="1493.02262973622" y="613.0414128013789"><tspan dy="0" x="1493.02262973622">(SQLAlchemy)]</tspan></text></g></g><g id="Requests sync and mapping [Internal API / function calls or internal HTTP]"><polyline points="1760,440 1759.79,470.44 1759.15,476.87 1756.64,489.67 1749.87,508.71 1743.46,521.29 1735.57,533.75 1721.14,552.2 1709.85,564.3199999999999 1697.31,576.29 1683.56,588.09 1668.66,599.71 1635.65,622.35 1598.75,644.13 1558.41,664.92 1515.08,684.65 1457.43,707.64 1409.08,724.59 1359.23,740.14 1308.35,754.19 1244,769.5 1179.65,782.12 1128.77,790.16 1078.92,796.25 1030.5700000000002,800.29 972.92,802.32 929.59,801.41 889.25,798.13 852.35,792.38 835.33,788.54 819.34,784.06 804.44,778.91 790.69,773.08 778.15,766.56 766.86,759.33 752.43,747.14 744.54,738.11 738.13,728.32 733.23,717.77 731.36,712.21 728.85,700.5 728.21,694.35 728,664" fill="none" stroke-width="1" stroke="#adb3b3" opacity="1"></polyline></g><g id="Requests sync and mapping [Internal API / function calls or internal HTTP]"><rect width="134.192" height="70.19999999999999" x="1205.1755189505575" y="727.6737069909396" rx="4" ry="4" fill-opacity="0.8" fill="#323435" stroke-opacity="1" stroke-width="1" stroke="#434647" opacity="0.8"></rect><g opacity="1" fill="#e5e7e8"><text font-family="IBM Plex Sans Medium, Arial, sans-serif" font-size="14" text-anchor="middle" x="1272.2715189505575" y="744.0237069909398"><tspan dy="0" x="1272.2715189505575">Requests sync and</tspan></text><text font-family="IBM Plex Sans Medium, Arial, sans-serif" font-size="14" text-anchor="middle" x="1272.2715189505575" y="760.0237069909398"><tspan dy="0" x="1272.2715189505575">mapping [Internal</tspan></text><text font-family="IBM Plex Sans Medium, Arial, sans-serif" font-size="14" text-anchor="middle" x="1272.2715189505575" y="776.0237069909398"><tspan dy="0" x="1272.2715189505575">API / function calls</tspan></text><text font-family="IBM Plex Sans Medium, Arial, sans-serif" font-size="14" text-anchor="middle" x="1272.2715189505575" y="792.0237069909398"><tspan dy="0" x="1272.2715189505575">or internal HTTP]</tspan></text></g></g><g id="Calls web services to fetch courses/assignments/submissions [HTTPS/JSON]"><polyline points="600,600 576,600 565.03,600.49 554.69,601.91 544.9300000000001,604.22 535.72,607.35 527.02,611.24 518.79,615.83 503.57,626.89 496.51,633.24 483.29,647.29 465.12,670.85 430.88,721.15 418.95,737.13 406.24,751.94 392.43,765.11 377.21000000000004,776.17 368.98,780.76 360.28,784.65 351.07,787.78 341.31,790.09 330.97,791.51 296,792" fill="none" stroke-width="1" stroke="#adb3b3" opacity="1"></polyline></g><g id="Calls web services to fetch courses/assignments/submissions [HTTPS/JSON]"><rect width="234.698" height="70.19999999999999" x="330.65274448355217" y="660.8974372802957" rx="4" ry="4" fill-opacity="0.8" fill="#323435" stroke-opacity="1" stroke-width="1" stroke="#434647" opacity="0.8"></rect><g opacity="1" fill="#e5e7e8"><text font-family="IBM Plex Sans Medium, Arial, sans-serif" font-size="14" text-anchor="middle" x="448.00174448355216" y="677.2474372802956"><tspan dy="0" x="448.00174448355216">Calls web services</tspan></text><text font-family="IBM Plex Sans Medium, Arial, sans-serif" font-size="14" text-anchor="middle" x="448.00174448355216" y="693.2474372802956"><tspan dy="0" x="448.00174448355216">to fetch</tspan></text><text font-family="IBM Plex Sans Medium, Arial, sans-serif" font-size="14" text-anchor="middle" x="448.00174448355216" y="709.2474372802956"><tspan dy="0" x="448.00174448355216">courses/assignments/submissions</tspan></text><text font-family="IBM Plex Sans Medium, Arial, sans-serif" font-size="14" text-anchor="middle" x="448.00174448355216" y="725.2474372802956"><tspan dy="0" x="448.00174448355216">[HTTPS/JSON]</tspan></text></g></g><a href="https://app.icepanel.io/landscapes/7lFgX7j8AtWqVITCu3lO/versions/latest/model/objects?object=CV5PcW7Lw1&amp;focus=CV5PcW7Lw1" id="Web_Api" target="_blank"><rect width="256" height="128" rx="8" ry="8" fill-opacity="0.8" fill="#1f2121" stroke-opacity="1" stroke-width="1" stroke="#434647" opacity="1" x="600" y="312"></rect><text font-family="IBM Plex Sans Medium, Arial, sans-serif" font-size="24" font-weight="500" text-anchor="middle" fill="#ffffff" opacity="1" x="728.0000000000001" y="363"><tspan dy="0" x="728.0000000000001">Web_Api</tspan></text><g opacity="1"><text font-family="IBM Plex Sans, Arial, sans-serif" font-size="14" text-anchor="middle" fill="#adb3b3" x="728" y="397.25"><tspan dy="0" x="728">[PythonFastAPI]</tspan></text></g><g id="App" opacity="1"><text font-family="Courier New, monospace" font-size="12" text-anchor="middle" fill="#adb3b3" x="728" y="428.6552734375"><tspan dy="0" x="728">App</tspan></text></g></a><a href="https://app.icepanel.io/landscapes/7lFgX7j8AtWqVITCu3lO/versions/latest/model/objects?object=jLn1V6NPnK&amp;focus=jLn1V6NPnK" id="Mobile_App" target="_blank"><rect width="256" height="128" rx="8" ry="8" fill-opacity="0.8" fill="#1f2121" stroke-opacity="1" stroke-width="1" stroke="#434647" opacity="1" x="952" y="312"></rect><text font-family="IBM Plex Sans Medium, Arial, sans-serif" font-size="24" font-weight="500" text-anchor="middle" fill="#ffffff" opacity="1" x="1080" y="363"><tspan dy="0" x="1080">Mobile_App</tspan></text><g opacity="1"><text font-family="IBM Plex Sans, Arial, sans-serif" font-size="14" text-anchor="middle" fill="#adb3b3" x="1080.0000000000002" y="397.25"><tspan dy="0" x="1080.0000000000002">[Flutter]</tspan></text></g><g id="App" opacity="1"><text font-family="Courier New, monospace" font-size="12" text-anchor="middle" fill="#adb3b3" x="1080" y="428.6552734375"><tspan dy="0" x="1080">App</tspan></text></g></a><a href="https://app.icepanel.io/landscapes/7lFgX7j8AtWqVITCu3lO/versions/latest/model/objects?object=QZnhJRl7Nr&amp;focus=QZnhJRl7Nr" id="Web_APP" target="_blank"><rect width="256" height="128" rx="8" ry="8" fill-opacity="0.8" fill="#1f2121" stroke-opacity="1" stroke-width="1" stroke="#434647" opacity="1" x="1568" y="312"></rect><text font-family="IBM Plex Sans Medium, Arial, sans-serif" font-size="24" font-weight="500" text-anchor="middle" fill="#ffffff" opacity="1" x="1696" y="363"><tspan dy="0" x="1696">Web_APP</tspan></text><g opacity="1"><text font-family="IBM Plex Sans, Arial, sans-serif" font-size="14" text-anchor="middle" fill="#adb3b3" x="1695.9999999999998" y="397.25"><tspan dy="0" x="1695.9999999999998">[React SPA]</tspan></text></g><g id="App" opacity="1"><text font-family="Courier New, monospace" font-size="12" text-anchor="middle" fill="#adb3b3" x="1696" y="428.6552734375"><tspan dy="0" x="1696">App</tspan></text></g></a><a href="https://app.icepanel.io/landscapes/7lFgX7j8AtWqVITCu3lO/versions/latest/model/objects?object=Xmlq0gFz1z&amp;focus=Xmlq0gFz1z" id="MyCourse_Connector" target="_blank"><rect width="256" height="128" rx="8" ry="8" fill-opacity="0.8" fill="#1f2121" stroke-opacity="1" stroke-width="1" stroke="#434647" opacity="1" x="600" y="536"></rect><text font-family="IBM Plex Sans Medium, Arial, sans-serif" font-size="24" font-weight="500" text-anchor="middle" fill="#ffffff" opacity="1" x="727.9999999999999" y="587.0000000000001"><tspan dy="0" x="727.9999999999999">MyCourse_Connector</tspan></text><g opacity="1"><text font-family="IBM Plex Sans, Arial, sans-serif" font-size="14" text-anchor="middle" fill="#adb3b3" x="728" y="621.2500000000001"><tspan dy="0" x="728">[Python module/service]</tspan></text></g><g id="App" opacity="1"><text font-family="Courier New, monospace" font-size="12" text-anchor="middle" fill="#adb3b3" x="728" y="652.6552734375"><tspan dy="0" x="728">App</tspan></text></g></a><a href="https://app.icepanel.io/landscapes/7lFgX7j8AtWqVITCu3lO/versions/latest/model/objects?object=cO9JsKXtSa&amp;focus=cO9JsKXtSa" id="Link" target="_blank"><path d="M960 545C960 533 1216 533 1216 545L1216 649Q1088 674 960 649L960 545Z " fill-opacity="0.8" fill="#1f2121" opacity="1"></path><path d="M960 545C960 533 1216 533 1216 545C1216 557 960 557 960 545Z " fill="#595f61" opacity="1"></path><path d="M960 545C960 533 1216 533 1216 545L1216 649Q1088 674 960 649L960 545Z " fill-opacity="0" stroke-width="1" stroke="#434647" opacity="1"></path><text font-family="IBM Plex Sans Medium, Arial, sans-serif" font-size="24" font-weight="500" text-anchor="middle" fill="#ffffff" opacity="1" x="1088" y="591.0000000000001"><tspan dy="0" x="1088">Database</tspan></text><g opacity="1"><text font-family="IBM Plex Sans, Arial, sans-serif" font-size="14" text-anchor="middle" fill="#adb3b3" x="1087.9999999999998" y="625.2500000000001"><tspan dy="0" x="1087.9999999999998">[PostgreSQL]</tspan></text></g><g id="Store" opacity="1"><text font-family="Courier New, monospace" font-size="12" text-anchor="middle" fill="#adb3b3" x="1088" y="650.6552734375"><tspan dy="0" x="1088">Store</tspan></text></g></a><a href="https://app.icepanel.io/landscapes/7lFgX7j8AtWqVITCu3lO/versions/latest/model/objects?object=kWaEjdOtWf&amp;focus=kWaEjdOtWf" id="Student" target="_blank"><rect width="56" height="56" rx="8" ry="8" fill-opacity="0.8" fill="#1f2121" stroke-opacity="1" stroke-width="1" stroke="#434647" opacity="1" x="132" y="32"></rect><rect width="256" height="96" rx="8" ry="8" fill-opacity="0.8" fill="#1f2121" stroke-opacity="1" stroke-width="1" stroke="#434647" opacity="1" x="32" y="96"></rect><path d="M160 61.714285714285715C163.7875 61.714285714285715 166.85714285714286 58.644642857142856 166.85714285714286 54.85714285714286C166.85714285714286 51.06964285714285 163.7875 48 160 48C156.2125 48 153.14285714285714 51.06964285714285 153.14285714285714 54.85714285714286C153.14285714285714 58.644642857142856 156.2125 61.714285714285715 160 61.714285714285715ZM164.8 63.42857142857143L163.90535714285716 63.42857142857143C162.71607142857144 63.974999999999994 161.39285714285714 64.28571428571428 160 64.28571428571428C158.60714285714286 64.28571428571428 157.2892857142857 63.974999999999994 156.09464285714284 63.42857142857143L155.2 63.42857142857143C151.225 63.42857142857143 148 66.65357142857142 148 70.62857142857143L148 72.85714285714286C148 74.27678571428571 149.15178571428572 75.42857142857143 150.57142857142856 75.42857142857143L169.42857142857142 75.42857142857143C170.84821428571428 75.42857142857143 172 74.27678571428571 172 72.85714285714286L172 70.62857142857143C172 66.65357142857142 168.775 63.42857142857143 164.8 63.42857142857143Z " fill="#ffffff" opacity="1"></path><text font-family="IBM Plex Sans Medium, Arial, sans-serif" font-size="24" font-weight="500" text-anchor="middle" fill="#ffffff" opacity="1" x="160" y="134.33333333333334"><tspan dy="0" x="160">Student</tspan></text><g opacity="1"><text font-family="IBM Plex Sans, Arial, sans-serif" font-size="10" text-anchor="middle" fill="#adb3b3" x="160" y="154.08333333333334"><tspan dy="0" x="160">[Manages personal tasks and track course work via</tspan></text><text font-family="IBM Plex Sans, Arial, sans-serif" font-size="10" text-anchor="middle" fill="#adb3b3" x="160" y="166.08333333333334"><tspan dy="0" x="160">web or mobile app]</tspan></text></g><g id="Actor" opacity="1"><text font-family="Courier New, monospace" font-size="12" text-anchor="middle" fill="#adb3b3" x="160" y="180.6552734375"><tspan dy="0" x="160">Actor</tspan></text></g></a><a href="https://app.icepanel.io/landscapes/7lFgX7j8AtWqVITCu3lO/versions/latest/model/objects?object=z177J9cDCj&amp;focus=z177J9cDCj" id="Instructor" target="_blank"><rect width="56" height="56" rx="8" ry="8" fill-opacity="0.8" fill="#1f2121" stroke-opacity="1" stroke-width="1" stroke="#434647" opacity="1" x="132" y="248"></rect><rect width="256" height="96" rx="8" ry="8" fill-opacity="0.8" fill="#1f2121" stroke-opacity="1" stroke-width="1" stroke="#434647" opacity="1" x="32" y="312"></rect><path d="M160 277.7142857142857C163.7875 277.7142857142857 166.85714285714286 274.64464285714286 166.85714285714286 270.8571428571429C166.85714285714286 267.06964285714287 163.7875 264 160 264C156.2125 264 153.14285714285714 267.06964285714287 153.14285714285714 270.8571428571429C153.14285714285714 274.64464285714286 156.2125 277.7142857142857 160 277.7142857142857ZM164.8 279.42857142857144L163.90535714285716 279.42857142857144C162.71607142857144 279.975 161.39285714285714 280.2857142857143 160 280.2857142857143C158.60714285714286 280.2857142857143 157.2892857142857 279.975 156.09464285714284 279.42857142857144L155.2 279.42857142857144C151.225 279.42857142857144 148 282.6535714285714 148 286.62857142857143L148 288.85714285714283C148 290.2767857142857 149.15178571428572 291.42857142857144 150.57142857142856 291.42857142857144L169.42857142857142 291.42857142857144C170.84821428571428 291.42857142857144 172 290.2767857142857 172 288.85714285714283L172 286.62857142857143C172 282.6535714285714 168.775 279.42857142857144 164.8 279.42857142857144Z " fill="#ffffff" opacity="1"></path><text font-family="IBM Plex Sans Medium, Arial, sans-serif" font-size="24" font-weight="500" text-anchor="middle" fill="#ffffff" opacity="1" x="160" y="350.33333333333337"><tspan dy="0" x="160">Instructor</tspan></text><g opacity="1"><text font-family="IBM Plex Sans, Arial, sans-serif" font-size="14" text-anchor="middle" fill="#adb3b3" x="160" y="377.58333333333337"><tspan dy="0" x="160">Views teaching-related tasks</tspan></text></g><g id="Actor" opacity="1"><text font-family="Courier New, monospace" font-size="12" text-anchor="middle" fill="#adb3b3" x="160" y="396.6552734375"><tspan dy="0" x="160">Actor</tspan></text></g></a><a href="https://app.icepanel.io/landscapes/7lFgX7j8AtWqVITCu3lO/versions/latest/model/objects?object=sY2thcs8mK&amp;focus=sY2thcs8mK" id="System Administrator" target="_blank"><rect width="56" height="56" rx="8" ry="8" fill-opacity="0.8" fill="#1f2121" stroke-opacity="1" stroke-width="1" stroke="#434647" opacity="1" x="132" y="456"></rect><rect width="256" height="96" rx="8" ry="8" fill-opacity="0.8" fill="#1f2121" stroke-opacity="1" stroke-width="1" stroke="#434647" opacity="1" x="32" y="520"></rect><path d="M160 485.7142857142857C163.7875 485.7142857142857 166.85714285714286 482.64464285714286 166.85714285714286 478.85714285714283C166.85714285714286 475.06964285714287 163.7875 472 160 472C156.2125 472 153.14285714285714 475.06964285714287 153.14285714285714 478.85714285714283C153.14285714285714 482.64464285714286 156.2125 485.7142857142857 160 485.7142857142857ZM164.8 487.42857142857144L163.90535714285716 487.42857142857144C162.71607142857144 487.975 161.39285714285714 488.2857142857143 160 488.2857142857143C158.60714285714286 488.2857142857143 157.2892857142857 487.975 156.09464285714284 487.42857142857144L155.2 487.42857142857144C151.225 487.42857142857144 148 490.6535714285714 148 494.62857142857143L148 496.85714285714283C148 498.2767857142857 149.15178571428572 499.42857142857144 150.57142857142856 499.42857142857144L169.42857142857142 499.42857142857144C170.84821428571428 499.42857142857144 172 498.2767857142857 172 496.85714285714283L172 494.62857142857143C172 490.6535714285714 168.775 487.42857142857144 164.8 487.42857142857144Z " fill="#ffffff" opacity="1"></path><text font-family="IBM Plex Sans Medium, Arial, sans-serif" font-size="24" font-weight="500" text-anchor="middle" fill="#ffffff" opacity="1" x="160" y="558.3333333333333"><tspan dy="0" x="160">System Administrator</tspan></text><g opacity="1"><text font-family="IBM Plex Sans, Arial, sans-serif" font-size="12" text-anchor="middle" fill="#adb3b3" x="160" y="584.8333333333334"><tspan dy="0" x="160">Manages config and monitors sync health</tspan></text></g><g id="Actor" opacity="1"><text font-family="Courier New, monospace" font-size="12" text-anchor="middle" fill="#adb3b3" x="160" y="604.6552734375"><tspan dy="0" x="160">Actor</tspan></text></g></a><a href="https://app.icepanel.io/landscapes/7lFgX7j8AtWqVITCu3lO/versions/latest/model/objects?object=0EvNwAZ57h&amp;focus=0EvNwAZ57h" id="MyCourse" target="_blank"><rect width="256" height="128" rx="8" ry="8" fill-opacity="0.8" fill="#1f2121" stroke-opacity="1" stroke-width="1" stroke="#434647" opacity="1" x="40" y="728"></rect><text font-family="IBM Plex Sans Medium, Arial, sans-serif" font-size="24" font-weight="500" text-anchor="middle" fill="#ffffff" opacity="1" x="168" y="779.0000000000001"><tspan dy="0" x="168">MyCourse</tspan></text><g opacity="1"><text font-family="IBM Plex Sans, Arial, sans-serif" font-size="14" text-anchor="middle" fill="#adb3b3" x="168" y="813.2500000000001"><tspan dy="0" x="168">External System</tspan></text></g><g id="System" opacity="1"><text font-family="Courier New, monospace" font-size="12" text-anchor="middle" fill="#adb3b3" x="168" y="844.6552734375"><tspan dy="0" x="168">System</tspan></text></g></a><g id="Uses[HTTPS/JSON]"><polygon points="592,304 584,320 600,320 592,304" fill="#adb3b3" opacity="1" transform="matrix(6.123233995736766e-17,1,-1,6.123233995736766e-17,904,-216)"></polygon><circle r="4" fill="#adb3b3" opacity="1" cx="288" cy="148"></circle></g><g id="Uses[HTTPS/JSON]"><polygon points="591.8796020696094,303.8499401880972 583.8796020696094,319.8499401880972 599.8796020696094,319.8499401880972 591.8796020696094,303.8499401880972" fill="#adb3b3" opacity="1" transform="matrix(-0.0037571417631877915,0.9999929419179774,-0.9999929419179774,-0.0037571417631877915,906.0715711620114,-214.7338172348077)"></polygon><circle r="4" fill="#adb3b3" opacity="1" cx="288" cy="364"></circle></g><g id="Uses (admin interface)[HTTPS/JSON]"><polygon points="592,304 584,320 600,320 592,304" fill="#adb3b3" opacity="1" transform="matrix(6.123233995736766e-17,1,-1,6.123233995736766e-17,904,-216)"></polygon><circle r="4" fill="#adb3b3" opacity="1" cx="288" cy="572"></circle></g><g id="Calls REST API to manage tasks and request sync[HTTPS/JSON]"><polygon points="1632.1820082248144,231.75967583130029 1624.1820082248144,247.75967583130029 1640.1820082248144,247.75967583130029 1632.1820082248144,231.75967583130029" fill="#adb3b3" opacity="1" transform="matrix(-0.9999715306727478,0.007545716930930977,-0.007545716930930977,-0.9999715306727478,3329.8843340109142,531.4370943754222)"></polygon><circle r="4" fill="#adb3b3" opacity="1" cx="728" cy="312"></circle></g><g id="Calls REST API to manage tasks and request sync[HTTPS/JSON]"><polygon points="1560,303.99999999999994 1552,319.99999999999994 1568,319.99999999999994 1560,303.99999999999994" fill="#adb3b3" opacity="1" transform="matrix(6.123233995736766e-17,1,-1,6.123233995736766e-17,1872,-1184)"></polygon><circle r="4" fill="#adb3b3" opacity="1" cx="1208" cy="376"></circle></g><g id="Reads/writes tasks, users, sync history [SQL via ORM (SQLAlchemy)]"><polygon points="1159.8377296660196,591.7963618812194 1151.8377296660196,607.7963618812194 1167.8377296660196,607.7963618812194 1159.8377296660196,591.7963618812194" fill="#adb3b3" opacity="1" transform="matrix(-0.005080627791382324,-0.9999870935273342,0.9999870935273342,-0.005080627791382324,630.1039799251839,1762.8294572950774)"></polygon><circle r="4" fill="#adb3b3" opacity="1" cx="1696" cy="440"></circle></g><g id="Requests sync and mapping [Internal API / function calls or internal HTTP]"><polygon points="727.8331753777419,664.2204540108442 719.8331753777419,680.2204540108442 735.8331753777419,680.2204540108442 727.8331753777419,664.2204540108442" fill="#adb3b3" opacity="1" transform="matrix(0.999976062675403,-0.006919109494625745,0.006919109494625745,0.999976062675403,-4.411567048641359,4.831403084027215)"></polygon><circle r="4" fill="#adb3b3" opacity="1" cx="1760" cy="440"></circle></g><g id="Calls web services to fetch courses/assignments/submissions [HTTPS/JSON]"><polygon points="239.55401537149868,783.4364336810604 231.55401537149868,799.4364336810604 247.55401537149868,799.4364336810604 239.55401537149868,783.4364336810604" fill="#adb3b3" opacity="1" transform="matrix(-0.01401063496299966,-0.9999018462368862,0.9999018462368862,-0.01401063496299966,-484.0032325836432,1042.5069441324406)"></polygon><circle r="4" fill="#adb3b3" opacity="1" cx="600" cy="600"></circle></g></g></svg>