<svg xmlns="http://www.w3.org/2000/svg" xmlns:xlink="http://www.w3.org/1999/xlink" version="1.1" width="1696" height="1461.5"><g id="Web_Api Component Diagram"><g id="Web_Api"><rect width="744" height="784" rx="8" ry="8" fill-opacity="0.1" fill="#ffffff" stroke-opacity="1" stroke-width="2" stroke="#4c5152" opacity="1" x="792" y="448"></rect><text font-family="IBM Plex Sans Medium, Arial, sans-serif" font-size="15" font-weight="500" fill="#ffffff" opacity="1" x="808" y="479.375"><tspan dy="0" x="808">Web_Api</tspan></text><g opacity="1"><text font-family="IBM Plex Sans, Arial, sans-serif" font-size="14" text-anchor="middle" fill="#adb3b3" x="1164.0000000000002" y="1197.25"><tspan dy="0" x="1164.0000000000002">[PythonFastAPI]</tspan></text></g><g id="App" opacity="1"><text font-family="Courier New, monospace" font-size="12" text-anchor="middle" fill="#adb3b3" x="1164" y="1220.6552734375"><tspan dy="0" x="1164">App</tspan></text></g></g><g id="MyCourse_Connector"><rect width="360" height="504" rx="8" ry="8" fill-opacity="0.1" fill="#ffffff" stroke-opacity="1" stroke-width="2" stroke="#4c5152" opacity="1" x="32" y="368"></rect><text font-family="IBM Plex Sans Medium, Arial, sans-serif" font-size="15" font-weight="500" fill="#ffffff" opacity="1" x="48" y="399.375"><tspan dy="0" x="48">MyCourse_Connector</tspan></text><g opacity="1"><text font-family="IBM Plex Sans, Arial, sans-serif" font-size="14" text-anchor="middle" fill="#adb3b3" x="211.99999999999997" y="837.25"><tspan dy="0" x="211.99999999999997">[Python module/service]</tspan></text></g><g id="App in: other context" opacity="1"><text font-family="Courier New, monospace" font-size="12" text-anchor="middle" fill="#adb3b3" x="212" y="860.6552734375"><tspan dy="0" x="212">App in: other context</tspan></text></g></g><g id="Authenticate / authorize requests to API [HTTPS/JSON]"><polyline points="760,160 760,184 760.4200000000001,193.93 761.6700000000001,203.5 766.4300000000001,221.7 769.8599999999999,230.36 778.5699999999999,246.88 789.48,262.48 795.6300000000001,269.98 809.1300000000001,284.48 831.6400000000001,305.27 888.4300000000001,351.98 911.6300000000001,372.48 932.3699999999999,394.02 944.23,409.22 954.0799999999999,425.26 958.1400000000001,433.64 964.3199999999999,451.24 966.3299999999999,460.5 967.5799999999999,470.07 968,504" fill="none" stroke-width="1" stroke="#adb3b3" opacity="1"></polyline></g><g id="Authenticate / authorize requests to API [HTTPS/JSON]"><rect width="132.12" height="70.19999999999999" x="797.9937880277942" y="296.8304690751587" rx="4" ry="4" fill-opacity="0.8" fill="#323435" stroke-opacity="1" stroke-width="1" stroke="#434647" opacity="0.8"></rect><g opacity="1" fill="#e5e7e8"><text font-family="IBM Plex Sans Medium, Arial, sans-serif" font-size="14" text-anchor="middle" x="864.0537880277941" y="313.1804690751587"><tspan dy="0" x="864.0537880277941">Authenticate /</tspan></text><text font-family="IBM Plex Sans Medium, Arial, sans-serif" font-size="14" text-anchor="middle" x="864.0537880277941" y="329.1804690751587"><tspan dy="0" x="864.0537880277941">authorize requests</tspan></text><text font-family="IBM Plex Sans Medium, Arial, sans-serif" font-size="14" text-anchor="middle" x="864.0537880277941" y="345.1804690751587"><tspan dy="0" x="864.0537880277941">to API</tspan></text><text font-family="IBM Plex Sans Medium, Arial, sans-serif" font-size="14" text-anchor="middle" x="864.0537880277941" y="361.1804690751587"><tspan dy="0" x="864.0537880277941">[HTTPS/JSON]</tspan></text></g></g><g id="Uses to create/edit/delete/mark tasks [HTTPS/JSON]"><polyline points="824,160 824.4000000000001,190.13 825.56,196.12 830.1199999999999,207.72 833.45,213.34 842.1099999999999,224.24 853.23,234.72 866.6300000000001,244.8 882.0899999999999,254.53 899.4100000000001,263.94 918.3699999999999,273.07 949.46,286.31 1006.6099999999999,307.45 1141.4,352.41 1188.35,369.12 1231.59,386.46 1251.31,395.46 1269.47,404.72 1293.37,419.2 1306.77,429.28 1317.89,439.76 1326.55,450.65999999999997 1332.52,462.02 1335.6,473.87 1336,504" fill="none" stroke-width="1" stroke="#adb3b3" opacity="1"></polyline></g><g id="Uses to create/edit/delete/mark tasks [HTTPS/JSON]"><rect width="168.94" height="70.19999999999999" x="995.5390739228999" y="296.83269429166546" rx="4" ry="4" fill-opacity="0.8" fill="#323435" stroke-opacity="1" stroke-width="1" stroke="#434647" opacity="0.8"></rect><g opacity="1" fill="#e5e7e8"><text font-family="IBM Plex Sans Medium, Arial, sans-serif" font-size="14" text-anchor="middle" x="1080.0090739229" y="313.1826942916655"><tspan dy="0" x="1080.0090739229">Uses to</tspan></text><text font-family="IBM Plex Sans Medium, Arial, sans-serif" font-size="14" text-anchor="middle" x="1080.0090739228997" y="329.1826942916655"><tspan dy="0" x="1080.0090739228997">create/edit/delete/mark</tspan></text><text font-family="IBM Plex Sans Medium, Arial, sans-serif" font-size="14" text-anchor="middle" x="1080.0090739229" y="345.1826942916655"><tspan dy="0" x="1080.0090739229">tasks</tspan></text><text font-family="IBM Plex Sans Medium, Arial, sans-serif" font-size="14" text-anchor="middle" x="1080.0090739229" y="361.1826942916655"><tspan dy="0" x="1080.0090739229">[HTTPS/JSON]</tspan></text></g></g><g id="Triggers manual syncs [HTTPS/JSON]"><polyline points="696,160 696.4100000000001,279.19 698.06,384.67 701.3699999999999,496.73 705.55,590.15 711.5,685.24 718.23,765.4100000000001 726.6600000000001,842.04 735.1400000000001,901.59 745.04,955.88 756.5,1003.63 764.1600000000001,1028.6 769.6099999999999,1043.56 775.3399999999999,1057.06 781.3599999999999,1069.02 787.6800000000001,1079.37 794.31,1088.02 801.25,1094.8899999999999 808.5,1099.9 816.0799999999999,1102.96 820,1103.74 848,1104" fill="none" stroke-width="1" stroke="#adb3b3" opacity="1"></polyline></g><g id="Triggers manual syncs [HTTPS/JSON]"><rect width="115.516" height="54.2" x="652.1269112475186" y="632.3284387439572" rx="4" ry="4" fill-opacity="0.8" fill="#323435" stroke-opacity="1" stroke-width="1" stroke="#434647" opacity="0.8"></rect><g opacity="1" fill="#e5e7e8"><text font-family="IBM Plex Sans Medium, Arial, sans-serif" font-size="14" text-anchor="middle" x="709.8849112475186" y="648.6784387439574"><tspan dy="0" x="709.8849112475186">Triggers manual</tspan></text><text font-family="IBM Plex Sans Medium, Arial, sans-serif" font-size="14" text-anchor="middle" x="709.8849112475186" y="664.6784387439574"><tspan dy="0" x="709.8849112475186">syncs</tspan></text><text font-family="IBM Plex Sans Medium, Arial, sans-serif" font-size="14" text-anchor="middle" x="709.8849112475186" y="680.6784387439574"><tspan dy="0" x="709.8849112475186">[HTTPS/JSON]</tspan></text></g></g><g id="Uses to create/edit/delete/mark tasks [HTTPS/JSON]"><polyline points="1536,160 1535.65,195.07 1533.0100000000002,215.95 1528.04,235.32 1524.79,244.51 1516.96,262.03 1507.63,278.58 1497.13,294.38 1485.81,309.64 1450.19,354.36 1433.49,377.44 1419.04,401.97 1411.21,419.49 1405.2,438.19 1401.36,458.29 1400,480 1400,504" fill="none" stroke-width="1" stroke="#adb3b3" opacity="1"></polyline></g><g id="Uses to create/edit/delete/mark tasks [HTTPS/JSON]"><rect width="168.94" height="70.19999999999999" x="1383.5352735899214" y="296.89337914258033" rx="4" ry="4" fill-opacity="0.8" fill="#323435" stroke-opacity="1" stroke-width="1" stroke="#434647" opacity="0.8"></rect><g opacity="1" fill="#e5e7e8"><text font-family="IBM Plex Sans Medium, Arial, sans-serif" font-size="14" text-anchor="middle" x="1468.0052735899214" y="313.24337914258035"><tspan dy="0" x="1468.0052735899214">Uses to</tspan></text><text font-family="IBM Plex Sans Medium, Arial, sans-serif" font-size="14" text-anchor="middle" x="1468.0052735899214" y="329.24337914258035"><tspan dy="0" x="1468.0052735899214">create/edit/delete/mark</tspan></text><text font-family="IBM Plex Sans Medium, Arial, sans-serif" font-size="14" text-anchor="middle" x="1468.0052735899214" y="345.24337914258035"><tspan dy="0" x="1468.0052735899214">tasks</tspan></text><text font-family="IBM Plex Sans Medium, Arial, sans-serif" font-size="14" text-anchor="middle" x="1468.0052735899214" y="361.24337914258035"><tspan dy="0" x="1468.0052735899214">[HTTPS/JSON]</tspan></text></g></g><g id="Validates tokens / loads user [SQL]"><polyline points="968,632 968.27,673.52 969.01,684.5699999999999 970.0699999999999,690.99 973.9300000000001,701.01 974.99,707.4300000000001 975.73,718.48 976,760" fill="none" stroke-width="1" stroke="#adb3b3" opacity="1"></polyline></g><g id="Validates tokens / loads user [SQL]"><rect width="127.822" height="38.2" x="908.0889999999999" y="676.9" rx="4" ry="4" fill-opacity="0.8" fill="#323435" stroke-opacity="1" stroke-width="1" stroke="#434647" opacity="0.8"></rect><g opacity="1" fill="#e5e7e8"><text font-family="IBM Plex Sans Medium, Arial, sans-serif" font-size="14" text-anchor="middle" x="972" y="693.2500000000001"><tspan dy="0" x="972">Validates tokens /</tspan></text><text font-family="IBM Plex Sans Medium, Arial, sans-serif" font-size="14" text-anchor="middle" x="972" y="709.2500000000001"><tspan dy="0" x="972">loads user [SQL]</tspan></text></g></g><g id="Reads/writes tasks and user data [SQL via SQLAlchemy]"><polyline points="1336,632 1335.26,695.36 1333.71,718.2 1331.04,738.46 1327.01,756.25 1321.41,771.6800000000001 1314,784.87 1309.54,790.6700000000001 1298.98,800.71 1286.03,808.79 1278.58,812.14 1261.62,817.5 1241.69,821.19 1218.56,823.3199999999999 1168,824" fill="none" stroke-width="1" stroke="#adb3b3" opacity="1"></polyline></g><g id="Reads/writes tasks and user data [SQL via SQLAlchemy]"><rect width="135.312" height="54.2" x="1246.133212055343" y="758.0441188517962" rx="4" ry="4" fill-opacity="0.8" fill="#323435" stroke-opacity="1" stroke-width="1" stroke="#434647" opacity="0.8"></rect><g opacity="1" fill="#e5e7e8"><text font-family="IBM Plex Sans Medium, Arial, sans-serif" font-size="14" text-anchor="middle" x="1313.789212055343" y="774.3941188517961"><tspan dy="0" x="1313.789212055343">Reads/writes tasks</tspan></text><text font-family="IBM Plex Sans Medium, Arial, sans-serif" font-size="14" text-anchor="middle" x="1313.789212055343" y="790.3941188517961"><tspan dy="0" x="1313.789212055343">and user data [SQL</tspan></text><text font-family="IBM Plex Sans Medium, Arial, sans-serif" font-size="14" text-anchor="middle" x="1313.789212055343" y="806.3941188517961"><tspan dy="0" x="1313.789212055343">via SQLAlchemy]</tspan></text></g></g><g id="Calls to fetch courses/assignments/submissions [HTTPS/JSON]"><polyline points="848,1136 817.75,1135.7 811.3900000000001,1134.8 798.3699999999999,1131.3200000000002 791.7,1128.76 778.0999999999999,1122.1399999999999 764.1500000000001,1113.62 749.8800000000001,1103.3600000000001 735.31,1091.52 720.49,1078.27 705.44,1063.75 682.49,1039.94 643.48,996.19 556.4000000000001,892.99 525.02,857.04 494.1700000000001,823.94 464.07000000000005,794.94 442.12,776.64 427.85,766.38 413.9,757.86 400.29999999999995,751.24 387.07000000000005,746.6600000000001 374.25,744.3 344,744" fill="none" stroke-width="1" stroke="#adb3b3" opacity="1"></polyline></g><g id="Calls to fetch courses/assignments/submissions [HTTPS/JSON]"><rect width="234.698" height="54.2" x="478.69574141490153" y="912.8736623107238" rx="4" ry="4" fill-opacity="0.8" fill="#323435" stroke-opacity="1" stroke-width="1" stroke="#434647" opacity="0.8"></rect><g opacity="1" fill="#e5e7e8"><text font-family="IBM Plex Sans Medium, Arial, sans-serif" font-size="14" text-anchor="middle" x="596.0447414149015" y="929.2236623107237"><tspan dy="0" x="596.0447414149015">Calls to fetch</tspan></text><text font-family="IBM Plex Sans Medium, Arial, sans-serif" font-size="14" text-anchor="middle" x="596.0447414149016" y="945.2236623107237"><tspan dy="0" x="596.0447414149016">courses/assignments/submissions</tspan></text><text font-family="IBM Plex Sans Medium, Arial, sans-serif" font-size="14" text-anchor="middle" x="596.0447414149015" y="961.2236623107237"><tspan dy="0" x="596.0447414149015">[HTTPS/JSON]</tspan></text></g></g><g id="Calls web services to fetch courses/assignments/submissions [HTTPS/JSON]"><polyline points="216,808 216,1072" fill="none" stroke-width="1" stroke="#adb3b3" opacity="1"></polyline></g><g id="Calls web services to fetch courses/assignments/submissions [HTTPS/JSON]"><rect width="234.698" height="70.19999999999999" x="98.65100000000001" y="904.9" rx="4" ry="4" fill-opacity="0.8" fill="#323435" stroke-opacity="1" stroke-width="1" stroke="#434647" opacity="0.8"></rect><g opacity="1" fill="#e5e7e8"><text font-family="IBM Plex Sans Medium, Arial, sans-serif" font-size="14" text-anchor="middle" x="216" y="921.2500000000001"><tspan dy="0" x="216">Calls web services</tspan></text><text font-family="IBM Plex Sans Medium, Arial, sans-serif" font-size="14" text-anchor="middle" x="216.00000000000003" y="937.2500000000001"><tspan dy="0" x="216.00000000000003">to fetch</tspan></text><text font-family="IBM Plex Sans Medium, Arial, sans-serif" font-size="14" text-anchor="middle" x="216" y="953.2500000000001"><tspan dy="0" x="216">courses/assignments/submissions</tspan></text><text font-family="IBM Plex Sans Medium, Arial, sans-serif" font-size="14" text-anchor="middle" x="216" y="969.2500000000001"><tspan dy="0" x="216">[HTTPS/JSON]</tspan></text></g></g><g id="Persists imported tasks, links assignments (MyCourses ID)"><polyline points="208,552 208.25,582.8 209.01,589.5 211.96000000000004,602.59 216.78999999999996,615.26 223.39,627.53 231.67999999999995,639.38 241.57000000000005,650.8299999999999 252.98000000000002,661.88 265.82000000000005,672.53 280,682.79 295.42999999999995,692.65 312.02,702.13 329.70000000000005,711.23 348.36,719.94 378.02,732.31 398.78,740.0899999999999 431.16999999999996,751.0699999999999 487.78,767.55 522.8299999999999,776.37 558.3399999999999,784.4 629.55,798.14 664.6600000000001,803.88 710.3,810.37 784.96,818.63 849.79,823.0799999999999 880.98,823.96 912,824" fill="none" stroke-width="1" stroke="#adb3b3" opacity="1"></polyline></g><g id="Persists imported tasks, links assignments (MyCourses ID)"><rect width="125.526" height="70.19999999999999" x="447.12367927555914" y="738.0129361258325" rx="4" ry="4" fill-opacity="0.8" fill="#323435" stroke-opacity="1" stroke-width="1" stroke="#434647" opacity="0.8"></rect><g opacity="1" fill="#e5e7e8"><text font-family="IBM Plex Sans Medium, Arial, sans-serif" font-size="14" text-anchor="middle" x="509.8866792755591" y="754.3629361258324"><tspan dy="0" x="509.8866792755591">Persists imported</tspan></text><text font-family="IBM Plex Sans Medium, Arial, sans-serif" font-size="14" text-anchor="middle" x="509.8866792755591" y="770.3629361258324"><tspan dy="0" x="509.8866792755591">tasks, links</tspan></text><text font-family="IBM Plex Sans Medium, Arial, sans-serif" font-size="14" text-anchor="middle" x="509.8866792755591" y="786.3629361258324"><tspan dy="0" x="509.8866792755591">assignments</tspan></text><text font-family="IBM Plex Sans Medium, Arial, sans-serif" font-size="14" text-anchor="middle" x="509.8866792755591" y="802.3629361258324"><tspan dy="0" x="509.8866792755591">(MyCourses ID)</tspan></text></g></g><g id="Records sync start/result/errors [Writes to DB]"><polyline points="1104,1104 1141.15,1104.22 1166.87,1105.77 1191.66,1108.4 1258.93,1117.65 1278.46,1119.52 1296.29,1119.94 1304.51,1119.45 1319.48,1116.75 1326.18,1114.42 1332.34,1111.35 1337.94,1107.47 1342.95,1102.73 1347.35,1097.06 1351.14,1090.4 1354.27,1082.6799999999998 1356.75,1073.8400000000001 1358.54,1063.83 1359.63,1052.5700000000002 1360,1016" fill="none" stroke-width="1" stroke="#adb3b3" opacity="1"></polyline></g><g id="Records sync start/result/errors [Writes to DB]"><rect width="129.74" height="54.2" x="1205.6279625111438" y="1091.6576338912362" rx="4" ry="4" fill-opacity="0.8" fill="#323435" stroke-opacity="1" stroke-width="1" stroke="#434647" opacity="0.8"></rect><g opacity="1" fill="#e5e7e8"><text font-family="IBM Plex Sans Medium, Arial, sans-serif" font-size="14" text-anchor="middle" x="1270.4979625111437" y="1108.007633891236"><tspan dy="0" x="1270.4979625111437">Records sync</tspan></text><text font-family="IBM Plex Sans Medium, Arial, sans-serif" font-size="14" text-anchor="middle" x="1270.4979625111437" y="1124.007633891236"><tspan dy="0" x="1270.4979625111437">start/result/errors</tspan></text><text font-family="IBM Plex Sans Medium, Arial, sans-serif" font-size="14" text-anchor="middle" x="1270.4979625111437" y="1140.007633891236"><tspan dy="0" x="1270.4979625111437">[Writes to DB]</tspan></text></g></g><g id="Persists sync log entries [SQL]"><polyline points="1232,952 1194.42,952.36 1181.28,953.35 1156.41,956.72 1094.37,968.93 1078.36,970.34 1071.32,969.97 1064.94,968.73 1059.25,966.48 1054.25,963.09 1049.97,958.46 1046.43,952.44 1043.64,944.91 1041.63,935.74 1040.41,924.81 1040,888" fill="none" stroke-width="1" stroke="#adb3b3" opacity="1"></polyline></g><g id="Persists sync log entries [SQL]"><rect width="118.834" height="38.2" x="1044.1705365195226" y="948.0159103658386" rx="4" ry="4" fill-opacity="0.8" fill="#323435" stroke-opacity="1" stroke-width="1" stroke="#434647" opacity="0.8"></rect><g opacity="1" fill="#e5e7e8"><text font-family="IBM Plex Sans Medium, Arial, sans-serif" font-size="14" text-anchor="middle" x="1103.5875365195225" y="964.3659103658385"><tspan dy="0" x="1103.5875365195225">Persists sync log</tspan></text><text font-family="IBM Plex Sans Medium, Arial, sans-serif" font-size="14" text-anchor="middle" x="1103.5875365195225" y="980.3659103658385"><tspan dy="0" x="1103.5875365195225">entries [SQL]</tspan></text></g></g><g id="Reads/Writes [PostgreSQL (SQL)]"><polyline points="912,856 881.6199999999999,856.4200000000001 875.29,857.6700000000001 862.78,862.52 850.53,870.3399999999999 838.5699999999999,880.88 826.96,893.9300000000001 815.74,909.25 804.96,926.62 794.6600000000001,945.81 784.9000000000001,966.59 771.3399999999999,1000.26 763.0999999999999,1024.03 755.55,1048.5900000000001 748.73,1073.73 740,1112 733.19,1150.27 729.79,1175.4099999999999 727.3599999999999,1199.97 725.94,1223.74 725.8199999999999,1257.4099999999999 727.1500000000001,1278.19 729.6500000000001,1297.38 733.3800000000001,1314.75 738.3699999999999,1330.0700000000002 744.6800000000001,1343.12 752.3499999999999,1353.6599999999999 761.4300000000001,1361.48 766.51,1364.29 771.97,1366.33 777.79,1367.58 808,1368" fill="none" stroke-width="1" stroke="#adb3b3" opacity="1"></polyline></g><g id="Reads/Writes [PostgreSQL (SQL)]"><rect width="134.16400000000002" height="38.2" x="675.9256116764346" y="1079.715429684175" rx="4" ry="4" fill-opacity="0.8" fill="#323435" stroke-opacity="1" stroke-width="1" stroke="#434647" opacity="0.8"></rect><g opacity="1" fill="#e5e7e8"><text font-family="IBM Plex Sans Medium, Arial, sans-serif" font-size="14" text-anchor="middle" x="743.0076116764346" y="1096.065429684175"><tspan dy="0" x="743.0076116764346">Reads/Writes</tspan></text><text font-family="IBM Plex Sans Medium, Arial, sans-serif" font-size="14" text-anchor="middle" x="743.0076116764346" y="1112.065429684175"><tspan dy="0" x="743.0076116764346">[PostgreSQL (SQL)]</tspan></text></g></g><a href="https://app.icepanel.io/landscapes/7lFgX7j8AtWqVITCu3lO/versions/latest/model/objects?object=QZnhJRl7Nr&amp;focus=QZnhJRl7Nr" id="Web_APP" target="_blank"><rect width="256" height="128" rx="8" ry="8" fill-opacity="0.8" fill="#1f2121" stroke-opacity="1" stroke-width="1" stroke="#434647" opacity="1" x="632" y="32"></rect><text font-family="IBM Plex Sans Medium, Arial, sans-serif" font-size="24" font-weight="500" text-anchor="middle" fill="#ffffff" opacity="1" x="760" y="83"><tspan dy="0" x="760">Web_APP</tspan></text><g opacity="1"><text font-family="IBM Plex Sans, Arial, sans-serif" font-size="14" text-anchor="middle" fill="#adb3b3" x="760" y="117.25"><tspan dy="0" x="760">[React SPA]</tspan></text></g><g id="App" opacity="1"><text font-family="Courier New, monospace" font-size="12" text-anchor="middle" fill="#adb3b3" x="760" y="148.6552734375"><tspan dy="0" x="760">App</tspan></text></g></a><a href="https://app.icepanel.io/landscapes/7lFgX7j8AtWqVITCu3lO/versions/latest/model/objects?object=Vwmrq2h30d&amp;focus=Vwmrq2h30d" id="Authentication &amp; Authorization" target="_blank"><rect width="256" height="128" rx="8" ry="8" fill-opacity="0.8" fill="#1f2121" stroke-opacity="1" stroke-width="1" stroke="#434647" opacity="1" x="840" y="504"></rect><text font-family="IBM Plex Sans Medium, Arial, sans-serif" font-size="17" font-weight="500" text-anchor="middle" fill="#ffffff" opacity="1" x="968" y="552.375"><tspan dy="0" x="968">Authentication &amp; Authorization</tspan></text><g opacity="1"><text font-family="IBM Plex Sans, Arial, sans-serif" font-size="13" text-anchor="middle" fill="#adb3b3" x="967.9999999999999" y="581.375"><tspan dy="0" x="967.9999999999999">Handles login, token validation (SSO /</tspan></text><text font-family="IBM Plex Sans, Arial, sans-serif" font-size="13" text-anchor="middle" fill="#adb3b3" x="968" y="596.375"><tspan dy="0" x="968">OAuth2 / OpenID Connect)</tspan></text></g><g id="Component" opacity="1"><text font-family="Courier New, monospace" font-size="12" text-anchor="middle" fill="#adb3b3" x="968" y="620.6552734375"><tspan dy="0" x="968">Component</tspan></text></g></a><a href="https://app.icepanel.io/landscapes/7lFgX7j8AtWqVITCu3lO/versions/latest/model/objects?object=kV8mnAMk48&amp;focus=kV8mnAMk48" id="Task_Management" target="_blank"><rect width="256" height="128" rx="8" ry="8" fill-opacity="0.8" fill="#1f2121" stroke-opacity="1" stroke-width="1" stroke="#434647" opacity="1" x="1208" y="504"></rect><text font-family="IBM Plex Sans Medium, Arial, sans-serif" font-size="24" font-weight="500" text-anchor="middle" fill="#ffffff" opacity="1" x="1336" y="555.0000000000001"><tspan dy="0" x="1336">Task_Management</tspan></text><g opacity="1"><text font-family="IBM Plex Sans, Arial, sans-serif" font-size="13" text-anchor="middle" fill="#adb3b3" x="1336" y="581.375"><tspan dy="0" x="1336">Task Management [CRUD for manual and</tspan></text><text font-family="IBM Plex Sans, Arial, sans-serif" font-size="13" text-anchor="middle" fill="#adb3b3" x="1335.9999999999998" y="596.375"><tspan dy="0" x="1335.9999999999998">imported tasks; enforces privacy rules]</tspan></text></g><g id="Component" opacity="1"><text font-family="Courier New, monospace" font-size="12" text-anchor="middle" fill="#adb3b3" x="1336" y="620.6552734375"><tspan dy="0" x="1336">Component</tspan></text></g></a><a href="https://app.icepanel.io/landscapes/7lFgX7j8AtWqVITCu3lO/versions/latest/model/objects?object=kBp9MvOqTF&amp;focus=kBp9MvOqTF" id="SyncOrchestrator" target="_blank"><rect width="256" height="128" rx="8" ry="8" fill-opacity="0.8" fill="#1f2121" stroke-opacity="1" stroke-width="1" stroke="#434647" opacity="1" x="848" y="1040"></rect><text font-family="IBM Plex Sans Medium, Arial, sans-serif" font-size="24" font-weight="500" text-anchor="middle" fill="#ffffff" opacity="1" x="976" y="1091"><tspan dy="0" x="976">SyncOrchestrator</tspan></text><g opacity="1"><text font-family="IBM Plex Sans, Arial, sans-serif" font-size="13" text-anchor="middle" fill="#adb3b3" x="976" y="1117.3750000000002"><tspan dy="0" x="976">Coordinates sync workflow,</tspan></text><text font-family="IBM Plex Sans, Arial, sans-serif" font-size="13" text-anchor="middle" fill="#adb3b3" x="976.0000000000001" y="1132.3750000000002"><tspan dy="0" x="976.0000000000001">deduplication, and business rules</tspan></text></g><g id="Component" opacity="1"><text font-family="Courier New, monospace" font-size="12" text-anchor="middle" fill="#adb3b3" x="976" y="1156.6552734375"><tspan dy="0" x="976">Component</tspan></text></g></a><a href="https://app.icepanel.io/landscapes/7lFgX7j8AtWqVITCu3lO/versions/latest/model/objects?object=zQ3BCzgk2c&amp;focus=zQ3BCzgk2c" id="Data_Access" target="_blank"><rect width="256" height="128" rx="8" ry="8" fill-opacity="0.8" fill="#1f2121" stroke-opacity="1" stroke-width="1" stroke="#434647" opacity="1" x="912" y="760"></rect><text font-family="IBM Plex Sans Medium, Arial, sans-serif" font-size="24" font-weight="500" text-anchor="middle" fill="#ffffff" opacity="1" x="1040" y="811.0000000000001"><tspan dy="0" x="1040">Data_Access</tspan></text><g opacity="1"><text font-family="IBM Plex Sans, Arial, sans-serif" font-size="11" text-anchor="middle" fill="#adb3b3" x="1040" y="837.6249999999999"><tspan dy="0" x="1040">Repository layer using SQLAlchemy[transaction</tspan></text><text font-family="IBM Plex Sans, Arial, sans-serif" font-size="11" text-anchor="middle" fill="#adb3b3" x="1040" y="850.6249999999999"><tspan dy="0" x="1040">management and DB operations]</tspan></text></g><g id="Component" opacity="1"><text font-family="Courier New, monospace" font-size="12" text-anchor="middle" fill="#adb3b3" x="1040" y="876.6552734375"><tspan dy="0" x="1040">Component</tspan></text></g></a><a href="https://app.icepanel.io/landscapes/7lFgX7j8AtWqVITCu3lO/versions/latest/model/objects?object=LqSnO4kQBD&amp;focus=LqSnO4kQBD" id="Sync_History" target="_blank"><rect width="256" height="128" rx="8" ry="8" fill-opacity="0.8" fill="#1f2121" stroke-opacity="1" stroke-width="1" stroke="#434647" opacity="1" x="1232" y="888"></rect><text font-family="IBM Plex Sans Medium, Arial, sans-serif" font-size="24" font-weight="500" text-anchor="middle" fill="#ffffff" opacity="1" x="1359.9999999999998" y="939.0000000000001"><tspan dy="0" x="1359.9999999999998">Sync_History</tspan></text><g opacity="1"><text font-family="IBM Plex Sans, Arial, sans-serif" font-size="12" text-anchor="middle" fill="#adb3b3" x="1360" y="965.5"><tspan dy="0" x="1360">Records sync outcomes (timestamp, result,</tspan></text><text font-family="IBM Plex Sans, Arial, sans-serif" font-size="12" text-anchor="middle" fill="#adb3b3" x="1360" y="979.5"><tspan dy="0" x="1360">error details) for admin monitoring</tspan></text></g><g id="Component" opacity="1"><text font-family="Courier New, monospace" font-size="12" text-anchor="middle" fill="#adb3b3" x="1360" y="1004.6552734375"><tspan dy="0" x="1360">Component</tspan></text></g></a><a href="https://app.icepanel.io/landscapes/7lFgX7j8AtWqVITCu3lO/versions/latest/model/objects?object=cO9JsKXtSa&amp;focus=cO9JsKXtSa" id="Link" target="_blank"><path d="M808 1313C808 1301 1064 1301 1064 1313L1064 1417Q936 1442 808 1417L808 1313Z " fill-opacity="0.8" fill="#1f2121" opacity="1"></path><path d="M808 1313C808 1301 1064 1301 1064 1313C1064 1325 808 1325 808 1313Z " fill="#595f61" opacity="1"></path><path d="M808 1313C808 1301 1064 1301 1064 1313L1064 1417Q936 1442 808 1417L808 1313Z " fill-opacity="0" stroke-width="1" stroke="#434647" opacity="1"></path><text font-family="IBM Plex Sans Medium, Arial, sans-serif" font-size="24" font-weight="500" text-anchor="middle" fill="#ffffff" opacity="1" x="936" y="1359"><tspan dy="0" x="936">Database</tspan></text><g opacity="1"><text font-family="IBM Plex Sans, Arial, sans-serif" font-size="14" text-anchor="middle" fill="#adb3b3" x="936" y="1393.25"><tspan dy="0" x="936">[PostgreSQL]</tspan></text></g><g id="Store" opacity="1"><text font-family="Courier New, monospace" font-size="12" text-anchor="middle" fill="#adb3b3" x="936" y="1418.6552734375"><tspan dy="0" x="936">Store</tspan></text></g></a><a href="https://app.icepanel.io/landscapes/7lFgX7j8AtWqVITCu3lO/versions/latest/model/objects?object=jLn1V6NPnK&amp;focus=jLn1V6NPnK" id="Mobile_App" target="_blank"><rect width="256" height="128" rx="8" ry="8" fill-opacity="0.8" fill="#1f2121" stroke-opacity="1" stroke-width="1" stroke="#434647" opacity="1" x="1408" y="32"></rect><text font-family="IBM Plex Sans Medium, Arial, sans-serif" font-size="24" font-weight="500" text-anchor="middle" fill="#ffffff" opacity="1" x="1536" y="83"><tspan dy="0" x="1536">Mobile_App</tspan></text><g opacity="1"><text font-family="IBM Plex Sans, Arial, sans-serif" font-size="14" text-anchor="middle" fill="#adb3b3" x="1536.0000000000002" y="117.25"><tspan dy="0" x="1536.0000000000002">[Flutter]</tspan></text></g><g id="App" opacity="1"><text font-family="Courier New, monospace" font-size="12" text-anchor="middle" fill="#adb3b3" x="1536" y="148.6552734375"><tspan dy="0" x="1536">App</tspan></text></g></a><a href="https://app.icepanel.io/landscapes/7lFgX7j8AtWqVITCu3lO/versions/latest/model/objects?object=0EvNwAZ57h&amp;focus=0EvNwAZ57h" id="MyCourse" target="_blank"><rect width="256" height="128" rx="8" ry="8" fill-opacity="0.8" fill="#1f2121" stroke-opacity="1" stroke-width="1" stroke="#434647" opacity="1" x="88" y="1072"></rect><text font-family="IBM Plex Sans Medium, Arial, sans-serif" font-size="24" font-weight="500" text-anchor="middle" fill="#ffffff" opacity="1" x="216" y="1123"><tspan dy="0" x="216">MyCourse</tspan></text><g opacity="1"><text font-family="IBM Plex Sans, Arial, sans-serif" font-size="14" text-anchor="middle" fill="#adb3b3" x="216" y="1157.25"><tspan dy="0" x="216">External System</tspan></text></g><g id="System" opacity="1"><text font-family="Courier New, monospace" font-size="12" text-anchor="middle" fill="#adb3b3" x="216" y="1188.6552734375"><tspan dy="0" x="216">System</tspan></text></g></a><a href="https://app.icepanel.io/landscapes/7lFgX7j8AtWqVITCu3lO/versions/latest/model/objects?object=vcp5LDzJYg&amp;focus=vcp5LDzJYg" id="Mapping_Component" target="_blank"><rect width="256" height="128" rx="8" ry="8" fill-opacity="0.8" fill="#1f2121" stroke-opacity="1" stroke-width="1" stroke="#434647" opacity="1" x="80" y="424"></rect><text font-family="IBM Plex Sans Medium, Arial, sans-serif" font-size="24" font-weight="500" text-anchor="middle" fill="#ffffff" opacity="1" x="207.99999999999997" y="475"><tspan dy="0" x="207.99999999999997">Mapping_Component</tspan></text><g opacity="1"><text font-family="IBM Plex Sans, Arial, sans-serif" font-size="13" text-anchor="middle" fill="#adb3b3" x="208" y="501.375"><tspan dy="0" x="208">Converts external data to internal model</tspan></text><text font-family="IBM Plex Sans, Arial, sans-serif" font-size="13" text-anchor="middle" fill="#adb3b3" x="207.99999999999997" y="516.375"><tspan dy="0" x="207.99999999999997">and maps to internal task mode</tspan></text></g><g id="Component" opacity="1"><text font-family="Courier New, monospace" font-size="12" text-anchor="middle" fill="#adb3b3" x="208" y="540.6552734375"><tspan dy="0" x="208">Component</tspan></text></g></a><a href="https://app.icepanel.io/landscapes/7lFgX7j8AtWqVITCu3lO/versions/latest/model/objects?object=gZ0hGtK424&amp;focus=gZ0hGtK424" id="MyCourse_Client" target="_blank"><rect width="256" height="128" rx="8" ry="8" fill-opacity="0.8" fill="#1f2121" stroke-opacity="1" stroke-width="1" stroke="#434647" opacity="1" x="88" y="680"></rect><text font-family="IBM Plex Sans Medium, Arial, sans-serif" font-size="24" font-weight="500" text-anchor="middle" fill="#ffffff" opacity="1" x="216" y="731.0000000000001"><tspan dy="0" x="216">MyCourse_Client</tspan></text><g opacity="1"><text font-family="IBM Plex Sans, Arial, sans-serif" font-size="13" text-anchor="middle" fill="#adb3b3" x="215.99999999999997" y="757.375"><tspan dy="0" x="215.99999999999997">Calls MyCourses web services, handles</tspan></text><text font-family="IBM Plex Sans, Arial, sans-serif" font-size="13" text-anchor="middle" fill="#adb3b3" x="216.00000000000003" y="772.375"><tspan dy="0" x="216.00000000000003">HTTPS and JSON parsing</tspan></text></g><g id="Component" opacity="1"><text font-family="Courier New, monospace" font-size="12" text-anchor="middle" fill="#adb3b3" x="216" y="796.6552734375"><tspan dy="0" x="216">Component</tspan></text></g></a><g id="Authenticate / authorize requests to API [HTTPS/JSON]"><polygon points="904.2995107957065,423.60698486262373 896.2995107957065,439.60698486262373 912.2995107957065,439.60698486262373 904.2995107957065,423.60698486262373" fill="#adb3b3" opacity="1" transform="matrix(-0.9999233960858966,0.01237747793563613,-0.01237747793563613,-0.9999233960858966,1877.4734240221765,916.3815876674614)"></polygon><circle r="4" fill="#adb3b3" opacity="1" cx="760" cy="160"></circle></g><g id="Uses to create/edit/delete/mark tasks [HTTPS/JSON]"><polygon points="1272.321410821366,423.5787361511311 1264.321410821366,439.5787361511311 1280.321410821366,439.5787361511311 1272.321410821366,423.5787361511311" fill="#adb3b3" opacity="1" transform="matrix(-0.9999118881497654,0.013274635089943808,-0.013274635089943808,-0.9999118881497654,2613.8321573820313,910.6518113991928)"></polygon><circle r="4" fill="#adb3b3" opacity="1" cx="824" cy="160"></circle></g><g id="Triggers manual syncs [HTTPS/JSON]"><polygon points="839.7018353255539,1031.6299669432829 831.7018353255539,1047.6299669432829 847.7018353255539,1047.6299669432829 839.7018353255539,1031.6299669432829" fill="#adb3b3" opacity="1" transform="matrix(-0.009285313983612268,0.9999568905429003,-0.9999568905429003,-0.009285313983612268,1887.3823891290933,273.9133719226645)"></polygon><circle r="4" fill="#adb3b3" opacity="1" cx="696" cy="160"></circle></g><g id="Uses to create/edit/delete/mark tasks [HTTPS/JSON]"><polygon points="1336.0000000000002,424 1328.0000000000002,440 1344.0000000000002,440 1336.0000000000002,424" fill="#adb3b3" opacity="1" transform="matrix(-1,1.2246467991473532e-16,-1.2246467991473532e-16,-1,2736,927.9999999999998)"></polygon><circle r="4" fill="#adb3b3" opacity="1" cx="1536" cy="160"></circle></g><g id="Validates tokens / loads user [SQL]"><polygon points="912.1567426442002,679.7927576389648 904.1567426442002,695.7927576389648 920.1567426442002,695.7927576389648 912.1567426442002,679.7927576389648" fill="#adb3b3" opacity="1" transform="matrix(-0.9999788568802624,0.0065027526820240515,-0.0065027526820240515,-0.9999788568802624,1892.5579809829283,1433.8468549946374)"></polygon><circle r="4" fill="#adb3b3" opacity="1" cx="968" cy="632"></circle></g><g id="Reads/writes tasks and user data [SQL via SQLAlchemy]"><polygon points="1111.5718295038766,815.4591801907332 1103.5718295038766,831.4591801907332 1119.5718295038766,831.4591801907332 1111.5718295038766,815.4591801907332" fill="#adb3b3" opacity="1" transform="matrix(-0.013448150856027975,-0.9999095695304419,0.9999095695304419,-0.013448150856027975,367.56314781631625,1946.4377276135249)"></polygon><circle r="4" fill="#adb3b3" opacity="1" cx="1336" cy="632"></circle></g><g id="Calls to fetch courses/assignments/submissions [HTTPS/JSON]"><polygon points="288.3185199266734,736.3951011611671 280.3185199266734,752.3951011611671 296.3185199266734,752.3951011611671 288.3185199266734,736.3951011611671" fill="#adb3b3" opacity="1" transform="matrix(0.009916867702396252,-0.9999508266584778,0.9999508266584778,0.009916867702396252,-395.218106771626,1025.0016095467176)"></polygon><circle r="4" fill="#adb3b3" opacity="1" cx="848" cy="1136"></circle></g><g id="Calls web services to fetch courses/assignments/submissions [HTTPS/JSON]"><polygon points="152.00000000000003,992 144.00000000000003,1008 160.00000000000003,1008 152.00000000000003,992" fill="#adb3b3" opacity="1" transform="matrix(-1,1.2246467991473532e-16,-1.2246467991473532e-16,-1,368.0000000000001,2064)"></polygon><circle r="4" fill="#adb3b3" opacity="1" cx="216" cy="808"></circle></g><g id="Persists imported tasks, links assignments (MyCourses ID)"><polygon points="903.9587163800593,751.9484470213802 895.9587163800593,767.9484470213802 911.9587163800593,767.9484470213802 903.9587163800593,751.9484470213802" fill="#adb3b3" opacity="1" transform="matrix(-0.0012894895791190726,0.9999991686079671,-0.9999991686079671,-0.0012894895791190726,1665.113467202158,-78.9883351495157)"></polygon><circle r="4" fill="#adb3b3" opacity="1" cx="208" cy="552"></circle></g><g id="Records sync start/result/errors [Writes to DB]"><polygon points="1360.241171835946,1015.6742067703748 1352.241171835946,1031.674206770375 1368.241171835946,1031.674206770375 1360.241171835946,1015.6742067703748" fill="#adb3b3" opacity="1" transform="matrix(0.9999488211891456,0.010117064912219831,-0.010117064912219831,0.9999488211891456,10.104085569267,-13.38387400399506)"></polygon><circle r="4" fill="#adb3b3" opacity="1" cx="1104" cy="1104"></circle></g><g id="Persists sync log entries [SQL]"><polygon points="1039.7307131220052,888.3539217836121 1031.7307131220052,904.3539217836121 1047.7307131220052,904.3539217836121 1039.7307131220052,888.3539217836121" fill="#adb3b3" opacity="1" transform="matrix(0.9999379751566845,-0.011137586792021663,0.011137586792021663,0.9999379751566845,-9.56034289333138,11.281269286922225)"></polygon><circle r="4" fill="#adb3b3" opacity="1" cx="1232" cy="952"></circle></g><g id="Reads/Writes [PostgreSQL (SQL)]"><polygon points="799.5528381107698,1295.4470385909158 791.5528381107698,1311.4470385909158 807.5528381107698,1311.4470385909158 799.5528381107698,1295.4470385909158" fill="#adb3b3" opacity="1" transform="matrix(-0.013901337839411167,0.9999033717346264,-0.9999033717346264,-0.013901337839411167,2114.436715913731,586.5328682295684)"></polygon><circle r="4" fill="#adb3b3" opacity="1" cx="912" cy="856"></circle></g></g></svg>